Coordinates
version=1
nRows=17
nColumns=40
inDegrees=yes

Units are S.I. units (second, meters, Newtons, ...)
Angles are in degrees.

endheader
time	pelvis_tilt	pelvis_list	pelvis_rotation	pelvis_tx	pelvis_ty	pelvis_tz	hip_flexion_r	hip_adduction_r	hip_rotation_r	knee_angle_r	knee_angle_r_beta	ankle_angle_r	subtalar_angle_r	mtp_angle_r	hip_flexion_l	hip_adduction_l	hip_rotation_l	knee_angle_l	knee_angle_l_beta	ankle_angle_l	subtalar_angle_l	mtp_angle_l	lumbar_extension	lumbar_bending	lumbar_rotation	arm_flex_r	arm_add_r	arm_rot_r	elbow_flex_r	pro_sup_r	wrist_flex_r	wrist_dev_r	arm_flex_l	arm_add_l	arm_rot_l	elbow_flex_l	pro_sup_l	wrist_flex_l	wrist_dev_l
     24.74000000	     -5.08534888	     -4.58386199	      0.09777512	      0.85275483	      0.93263112	      0.42252992	     27.16267920	     -6.07971297	     -8.39206903	     59.69871678	     59.69871678	      6.09502322	    -13.87524239	      0.52103613	     15.80107039	     -3.96422638	     -8.66812297	     20.51640484	     20.51640484	     12.95985668	     -5.08860971	     -2.24825638	     -8.52892809	      3.99186532	      1.77921168	     12.19221523	    -12.06255891	     -0.14510677	     45.69172817	     45.36988774	      0.00000000	      0.00000000	     15.74111795	    -13.90488731	     -4.68028377	     43.72475635	     45.46528304	      0.00000000	      0.00000000
     24.75392857	     -4.85855108	     -4.40654802	     -0.23565720	      0.85212835	      0.93353263	      0.42218038	     27.80290100	     -6.01477598	     -7.88323424	     58.09340216	     58.09340216	      6.07870185	    -13.72586927	      0.45288746	     14.45189763	     -3.70127909	     -9.00408777	     19.45527424	     19.45527424	     13.12690264	     -4.74904554	     -2.19716241	     -8.82294514	      3.83984687	      2.05607448	      9.73160580	    -12.50177350	     -0.00262212	     43.78475552	     45.42353261	      0.00000000	      0.00000000	     16.91777107	    -14.20210536	     -4.98071629	     44.76188306	     45.53334626	      0.00000000	      0.00000000
     24.76785714	     -4.81040094	     -4.30752199	     -0.57837364	      0.85133086	      0.93402803	      0.42189140	     28.48893229	     -5.97095919	     -7.63814986	     56.23655560	     56.23655560	      6.03891322	    -13.11147430	      0.10815878	     13.47914458	     -3.54395532	     -9.36312067	     18.69646140	     18.69646140	     13.27862515	     -4.54952296	     -2.40737723	     -8.95739479	      3.75593360	      2.40969858	      7.45092943	    -12.85158035	      0.06366848	     41.34418186	     45.50364964	      0.00000000	      0.00000000	     17.99874441	    -14.44039258	     -5.37685665	     46.16186096	     45.61701796	      0.00000000	      0.00000000
     24.78178571	     -4.80389864	     -4.26520513	     -0.88596925	      0.85048492	      0.93436312	      0.42169683	     29.05321227	     -5.82035511	     -7.43720229	     54.06028587	     54.06028587	      5.57843609	    -12.68096810	     -1.26870198	     12.55536883	     -3.43129776	     -9.64101936	     17.87410501	     17.87410501	     13.06071675	     -4.57455024	     -3.42584181	     -9.02028914	      3.71123366	      1.87787107	      6.68253690	    -12.51505041	     -0.45630406	     36.28434632	     45.73849830	      0.00000000	      0.00000000	     18.14648447	    -15.08318264	     -6.45886582	     48.57441408	     45.82904137	      0.00000000	      0.00000000
     24.79571429	     -4.75409592	     -4.19574887	     -1.19821575	      0.84960815	      0.93465507	      0.42158258	     29.51934993	     -5.66469388	     -7.22206302	     51.80636108	     51.80636108	      5.62577946	    -11.85828356	     -1.22661211	     11.61292755	     -3.29429792	     -9.95255943	     17.12359016	     17.12359016	     13.24112262	     -4.34818876	     -3.47218973	     -9.20827463	      3.68965768	      2.27528517	      4.38673049	    -12.91332375	     -0.45063700	     34.55614610	     45.79329332	      0.00000000	      0.00000000	     19.22680575	    -15.21250107	     -6.87430880	     49.92520992	     45.90817277	      0.00000000	      0.00000000
     24.80964286	     -4.77161874	     -4.17434868	     -1.46359578	      0.84862614	      0.93467687	      0.42166588	     29.96915164	     -5.44593498	     -7.11264549	     49.38482820	     49.38482820	      5.64427323	    -10.96384990	     -1.19556486	     10.84907274	     -3.22911366	    -10.20918680	     16.52897332	     16.52897332	     13.41871575	     -4.18622187	     -3.69559717	     -9.31197867	      3.67582223	      2.43870048	      2.35486186	    -13.11331799	     -0.54690681	     32.64629193	     45.86523827	      0.00000000	      0.00000000	     20.07213887	    -15.51235575	     -7.33402228	     51.34754793	     45.98933877	      0.00000000	      0.00000000
     24.82357143	     -4.95893934	     -4.10599624	     -1.69571037	      0.84743405	      0.93422868	      0.42188075	     30.55960582	     -5.22763565	     -7.01596592	     46.83363023	     46.83363023	      5.63040853	    -10.18383436	     -0.95177991	     10.46672058	     -3.14442620	    -10.39889000	     16.26769942	     16.26769942	     13.68569775	     -4.17995435	     -3.84486044	     -9.17201396	      3.63936986	      2.05055132	      0.50375271	    -13.23508207	     -0.58111309	     31.65841903	     45.89450186	      0.00000000	      0.00000000	     20.73805772	    -16.21212020	     -7.64405683	     52.00512147	     46.03373110	      0.00000000	      0.00000000
     24.83750000	     -4.89424379	     -4.20861346	     -1.93702855	      0.84654260	      0.93431560	      0.42223702	     30.59040019	     -4.88519037	     -7.26429128	     43.83640507	     43.83640507	      5.63746333	     -8.87270759	     -0.88269252	      9.53890017	     -3.20640266	    -10.64393240	     15.52131623	     15.52131623	     13.84138937	     -3.91612660	     -4.10781678	     -9.40803221	      3.79613197	      2.59174373	     -1.44008064	    -13.51925411	     -0.71472166	     29.70773658	     45.97399575	      0.00000000	      0.00000000	     21.47215455	    -15.98569901	     -8.06660938	     53.98585564	     46.10978816	      0.00000000	      0.00000000
     24.85142857	     -5.00825832	     -4.13835250	     -2.18203491	      0.84552505	      0.93381476	      0.42278620	     30.80320986	     -4.63060423	     -7.38556689	     40.74462288	     40.74462288	      5.28214150	     -7.88348667	     -1.86751262	      8.91160538	     -3.09839751	    -10.82172423	     14.89718180	     14.89718180	     13.46785463	     -4.05168526	     -5.55692372	     -9.42880150	      3.69075137	      1.71365485	     -1.69414192	    -13.05231207	     -2.41803037	     25.85644923	     46.29389889	      0.00000000	      0.00000000	     20.47000468	    -16.74466799	     -9.91657803	     58.08350954	     46.38101153	      0.00000000	      0.00000000
     24.86535714	     -5.09339322	     -4.13089447	     -2.38507863	      0.84454255	      0.93335265	      0.42344842	     30.86725362	     -4.31756937	     -7.73232571	     37.51543858	     37.51543858	      5.23255327	     -6.56644600	     -1.58582009	      8.35386339	     -3.08641919	    -10.97620517	     14.52431934	     14.52431934	     13.71862946	     -3.94827615	     -5.71257679	     -9.46365134	      3.71687927	      1.90249283	     -3.55659349	    -13.21584726	     -2.63125735	     24.95227419	     46.33830676	      0.00000000	      0.00000000	     21.14678960	    -16.85558622	    -10.27671660	     59.25349884	     46.44310180	      0.00000000	      0.00000000
     24.87928571	     -5.33105690	     -4.13235764	     -2.57354116	      0.84355525	      0.93258798	      0.42432470	     30.98087630	     -3.92483339	     -8.13176362	     34.13015459	     34.13015459	      5.08784656	     -5.35798450	     -1.13281786	      8.00914148	     -3.11109722	    -11.10367295	     14.22976047	     14.22976047	     13.96472560	     -3.88168721	     -5.87811081	     -9.28314006	      3.76077002	      1.85809169	     -5.24874812	    -13.28954418	     -2.76924628	     24.29100707	     46.36513189	      0.00000000	      0.00000000	     21.54357400	    -17.12979362	    -10.57496725	     60.21913786	     46.48849273	      0.00000000	      0.00000000
     24.89321429	     -5.34041595	     -4.03621421	     -2.77632152	      0.84287801	      0.93197632	      0.42524054	     30.75689336	     -3.70088690	     -8.85813953	     30.73316520	     30.73316520	      4.87424821	     -3.60122856	     -0.95556420	      7.34206840	     -3.03036683	    -11.42463301	     13.83870415	     13.83870415	     14.12785393	     -3.58658287	     -6.44362125	     -9.46337962	      3.63687631	      1.98216018	     -6.99445957	    -13.34274599	     -3.53564488	     23.81930135	     46.44707089	      0.00000000	      0.00000000	     21.39271880	    -17.14452286	    -11.41034340	     63.11298469	     46.62114128	      0.00000000	      0.00000000
     24.90714286	     -5.55146546	     -4.00213995	     -2.94397869	      0.84220670	      0.93105347	      0.42641095	     30.62928959	     -3.24768421	     -9.38846998	     27.25378193	     27.25378193	      4.52330482	     -2.45213594	     -0.23263533	      7.02098361	     -3.04216034	    -11.52511093	     13.68841858	     13.68841858	     14.40109072	     -3.61594472	     -6.62837358	     -9.27762464	      3.63653061	      1.86359546	     -8.42854022	    -13.32710020	     -3.68207260	     23.37936488	     46.46700503	      0.00000000	      0.00000000	     21.59472833	    -17.42667967	    -11.70588175	     63.94718407	     46.66238264	      0.00000000	      0.00000000
     24.92107143	     -5.48740785	     -3.94838602	     -3.07902083	      0.84198418	      0.93031750	      0.42757857	     30.13986772	     -2.93999383	    -10.41290659	     24.00728184	     24.00728184	      4.39627955	     -0.52060565	      0.79113797	      6.32274271	     -3.03814046	    -11.81320188	     13.45030654	     13.45030654	     14.63923985	     -3.28336689	     -7.19954461	     -9.49429070	      3.57590880	      1.73792564	    -10.00646032	    -13.36629217	     -4.60459042	     23.53389276	     46.53624320	      0.00000000	      0.00000000	     21.02554446	    -17.47206059	    -12.76470810	     66.92169073	     46.81811662	      0.00000000	      0.00000000
     24.93500000	     -5.55347887	     -3.89892305	     -3.20098045	      0.84186480	      0.92934616	      0.42896796	     29.72137439	     -2.47968692	    -11.12524552	     20.87216578	     20.87216578	      3.99035958	      0.62978509	      1.79672851	      5.83832525	     -3.04219040	    -11.88367300	     13.35958755	     13.35958755	     14.97458945	     -3.28115702	     -7.39510066	     -9.43457631	      3.54892700	      1.71629581	    -11.34754523	    -13.36984881	     -4.79149016	     23.21869616	     46.55495502	      0.00000000	      0.00000000	     21.06339044	    -17.56625192	    -13.07651333	     67.79787663	     46.86370956	      0.00000000	      0.00000000
     24.94892857	     -5.52842415	     -3.81800430	     -3.32020841	      0.84213069	      0.92836239	      0.43039916	     29.29266244	     -2.14991643	    -12.08318112	     18.36763339	     18.36763339	      4.17935919	      2.30505741	      4.04823447	      5.21563416	     -3.03877429	    -12.19310215	     13.26030533	     13.26030533	     15.36906677	     -2.90793108	     -7.74574952	     -9.48551160	      3.48636717	      1.49341443	    -12.69858066	    -13.31672959	     -5.65213548	     23.86722360	     46.59262344	      0.00000000	      0.00000000	     20.41087218	    -17.57694235	    -14.08678738	     70.10087503	     47.01536833	      0.00000000	      0.00000000
     24.96285714	     -5.62665257	     -3.49017003	     -3.39428487	      0.84251541	      0.92691234	      0.43188852	     29.20692321	     -2.02901489	    -12.44547540	     16.54770027	     16.54770027	      3.89226851	      2.80193880	      4.63839932	      4.80793620	     -2.75110490	    -12.22419463	     13.28413995	     13.28413995	     15.75226422	     -2.91456483	     -7.91531482	     -9.25863909	      3.15525386	      1.40355987	    -13.92925813	    -13.23497739	     -5.70148905	     23.51172590	     46.60004245	      0.00000000	      0.00000000	     20.34328027	    -17.82184724	    -14.28869877	     70.38720980	     47.03671598	      0.00000000	      0.00000000
